<svg xmlns="http://www.w3.org/2000/svg" viewBox="0 0 500 500"><defs><style>.cls-1{fill:none;stroke:#231f20;stroke-miterlimit:10;}.cls-2{fill:#fff;}.cls-26,.cls-3{font-size:9px;}.cls-10,.cls-26,.cls-3{fill:#231f20;}.cls-10,.cls-3{font-family:Montserrat-Regular, Montserrat;}.cls-4{letter-spacing:-0.01em;}.cls-5{letter-spacing:-0.01em;}.cls-6{letter-spacing:0em;}.cls-7{letter-spacing:-0.01em;}.cls-8{letter-spacing:-0.03em;}.cls-9{letter-spacing:0.01em;}.cls-10{font-size:7px;}.cls-11{letter-spacing:-0.01em;}.cls-12{letter-spacing:-0.01em;}.cls-13{letter-spacing:-0.01em;}.cls-14{letter-spacing:0em;}.cls-15{letter-spacing:-0.01em;}.cls-16{letter-spacing:0.01em;}.cls-17{letter-spacing:-0.02em;}.cls-18{letter-spacing:0em;}.cls-19{letter-spacing:-0.01em;}.cls-20{letter-spacing:-0.01em;}.cls-21{letter-spacing:-0.02em;}.cls-22{letter-spacing:0em;}.cls-23{letter-spacing:0.01em;}.cls-24{letter-spacing:-0.01em;}.cls-25{letter-spacing:-0.04em;}.cls-26{font-family:MyriadPro-Regular, Myriad Pro;}.cls-27{letter-spacing:0em;}</style></defs><g id="BACKGROUND"><rect class="cls-1" x="9.52" y="13.12" width="476.64" height="476.64"/><rect class="cls-2" width="500" height="500"/><circle class="cls-1" cx="48.79" cy="46.92" r="20.27"/><rect class="cls-1" x="137.32" y="57.48" width="225.36" height="35.45"/><rect class="cls-1" x="81.16" y="111.01" width="337.68" height="27"/><rect class="cls-1" x="188.08" y="159.07" width="123.84" height="17.1"/><rect class="cls-1" x="39.4" y="195.1" width="421.2" height="213.74"/><rect class="cls-1" x="199.6" y="422.31" width="100.8" height="20.69"/><text class="cls-3" transform="translate(35 50.32)"><tspan class="cls-4">L</tspan><tspan x="5.17" y="0">OGO</tspan></text><text class="cls-3" transform="translate(215.18 78.68)">MAIN TITLE</text><text class="cls-3" transform="translate(190.85 126.99)">INTRO ABO<tspan class="cls-4" x="52.41" y="0">U</tspan><tspan x="59.41" y="0">T </tspan><tspan class="cls-5" x="66.93" y="0">W</tspan><tspan x="76.8" y="0">EBSITE</tspan></text><text class="cls-3" transform="translate(203.58 170.48)">LINK MAIN <tspan class="cls-5" x="51.53" y="0">V</tspan><tspan x="57.68" y="0">ID</tspan><tspan class="cls-6" x="67.83" y="0">E</tspan><tspan x="73.82" y="0">O</tspan></text><rect class="cls-1" x="110.72" y="345.42" width="51.93" height="51.93"/><rect class="cls-1" x="174.08" y="345.42" width="51.93" height="51.93"/><rect class="cls-1" x="240.32" y="345.42" width="51.93" height="51.93"/><rect class="cls-1" x="309.77" y="345.42" width="51.93" height="51.93"/><text class="cls-3" transform="translate(315.3 372.1)">IM<tspan class="cls-7" x="11.31" y="0">A</tspan><tspan x="17.68" y="0">GE</tspan></text><text class="cls-3" transform="translate(248.05 372.47)">IM<tspan class="cls-7" x="11.31" y="0">A</tspan><tspan x="17.68" y="0">GE</tspan></text><text class="cls-3" transform="translate(181.9 374.53)">IM<tspan class="cls-7" x="11.31" y="0">A</tspan><tspan x="17.68" y="0">GE</tspan></text><text class="cls-3" transform="translate(120.4 373.38)">IM<tspan class="cls-7" x="11.31" y="0">A</tspan><tspan x="17.68" y="0">GE</tspan></text><text class="cls-3" transform="translate(202.25 435.65)">DON<tspan class="cls-8" x="22.3" y="0">A</tspan><tspan x="28.44" y="0">TION B</tspan><tspan class="cls-4" x="60.34" y="0">U</tspan><tspan class="cls-9" x="67.34" y="0">T</tspan><tspan class="cls-7" x="72.59" y="0">T</tspan><tspan x="77.67" y="0">ON</tspan></text><rect class="cls-1" x="207.04" y="472.66" width="84.24" height="10.34"/><text class="cls-10" transform="translate(218.98 480.34)">LINK <tspan class="cls-11" x="18.74" y="0">T</tspan><tspan x="22.69" y="0">O REPO</tspan></text><text class="cls-3" transform="translate(47.6 213.2)"><tspan class="cls-12">L</tspan><tspan x="5.23" y="0">o</tspan><tspan class="cls-13" x="10.87" y="0">r</tspan><tspan x="14.36" y="0">em ipsum dolor sit a</tspan><tspan class="cls-14" x="106.51" y="0">m</tspan><tspan x="116.08" y="0">e</tspan><tspan class="cls-9" x="121.51" y="0">t</tspan><tspan x="125.26" y="0">, </tspan><tspan class="cls-15" x="129.53" y="0">c</tspan><tspan x="134.51" y="0">onse</tspan><tspan class="cls-16" x="156.08" y="0">c</tspan><tspan class="cls-17" x="161.21" y="0">t</tspan><tspan x="164.69" y="0">etuer </tspan><tspan class="cls-14" x="191.24" y="0">a</tspan><tspan x="196.56" y="0">dipisci</tspan><tspan class="cls-14" x="225.5" y="0">n</tspan><tspan x="231.61" y="0">g eli</tspan><tspan class="cls-9" x="250.42" y="0">t</tspan><tspan x="254.16" y="0">, sed diam </tspan><tspan class="cls-18" x="302.46" y="0">n</tspan><tspan x="308.58" y="0">onum</tspan><tspan class="cls-7" x="335.92" y="0">m</tspan><tspan x="345.38" y="0">y nibh </tspan><tspan x="0" y="10.8">euis</tspan><tspan class="cls-14" x="18.31" y="10.8">m</tspan><tspan x="27.88" y="10.8">od ti</tspan><tspan class="cls-18" x="48.06" y="10.8">n</tspan><tspan x="54.17" y="10.8">cidunt ut l</tspan><tspan class="cls-14" x="100.41" y="10.8">a</tspan><tspan x="105.74" y="10.8">o</tspan><tspan class="cls-13" x="111.38" y="10.8">r</tspan><tspan x="114.87" y="10.8">eet dolo</tspan><tspan class="cls-19" x="151.57" y="10.8">r</tspan><tspan x="155.06" y="10.8">e m</tspan><tspan class="cls-14" x="172.4" y="10.8">a</tspan><tspan x="177.73" y="10.8">gna aliquam e</tspan><tspan class="cls-20" x="242.62" y="10.8">r</tspan><tspan x="246.15" y="10.8">at </tspan><tspan class="cls-21" x="257.47" y="10.8">v</tspan><tspan x="262.22" y="10.8">olut</tspan><tspan class="cls-22" x="279.99" y="10.8">p</tspan><tspan x="286.07" y="10.8">a</tspan><tspan class="cls-9" x="291.38" y="10.8">t</tspan><tspan x="295.12" y="10.8">. Ut wisi enim </tspan><tspan class="cls-14" x="357.9" y="10.8">a</tspan><tspan x="363.22" y="10.8">d minim </tspan><tspan class="cls-5" x="0" y="21.6">v</tspan><tspan x="4.74" y="21.6">eniam, quis </tspan><tspan class="cls-14" x="59.16" y="21.6">n</tspan><tspan x="65.27" y="21.6">ostrud </tspan><tspan class="cls-5" x="97.09" y="21.6">e</tspan><tspan class="cls-17" x="102.39" y="21.6">x</tspan><tspan x="107.03" y="21.6">e</tspan><tspan class="cls-19" x="112.46" y="21.6">r</tspan><tspan x="115.95" y="21.6">ci tation ulla</tspan><tspan class="cls-18" x="171.14" y="21.6">m</tspan><tspan class="cls-15" x="180.71" y="21.6">c</tspan><tspan x="185.69" y="21.6">o</tspan><tspan class="cls-12" x="191.33" y="21.6">r</tspan><tspan x="194.87" y="21.6">per suscipit lobo</tspan><tspan class="cls-23" x="269.07" y="21.6">r</tspan><tspan x="272.81" y="21.6">tis nisl ut aliquip </tspan><tspan class="cls-5" x="348.6" y="21.6">e</tspan><tspan x="353.9" y="21.6">x </tspan><tspan class="cls-5" x="361.06" y="21.6">e</tspan><tspan x="366.36" y="21.6">a </tspan><tspan class="cls-15" x="0" y="32.4">c</tspan><tspan x="4.99" y="32.4">om</tspan><tspan class="cls-18" x="20.18" y="32.4">m</tspan><tspan x="29.74" y="32.4">odo </tspan><tspan class="cls-15" x="49.49" y="32.4">c</tspan><tspan x="54.48" y="32.4">onsequa</tspan><tspan class="cls-9" x="93.52" y="32.4">t</tspan><tspan x="97.26" y="32.4">. Duis au</tspan><tspan class="cls-17" x="135.56" y="32.4">t</tspan><tspan x="139.05" y="32.4">em </tspan><tspan class="cls-5" x="156.39" y="32.4">v</tspan><tspan x="161.13" y="32.4">el eum i</tspan><tspan class="cls-12" x="197.17" y="32.4">r</tspan><tspan x="200.7" y="32.4">iu</tspan><tspan class="cls-19" x="209.18" y="32.4">r</tspan><tspan x="212.67" y="32.4">e dolor in </tspan><tspan class="cls-18" x="257.11" y="32.4">h</tspan><tspan x="263.22" y="32.4">e</tspan><tspan class="cls-14" x="268.66" y="32.4">n</tspan><tspan x="274.77" y="32.4">d</tspan><tspan class="cls-19" x="280.87" y="32.4">r</tspan><tspan x="284.36" y="32.4">e</tspan><tspan class="cls-24" x="289.8" y="32.4">r</tspan><tspan x="293.34" y="32.4">it in vulputa</tspan><tspan class="cls-17" x="347.12" y="32.4">t</tspan><tspan x="350.6" y="32.4">e </tspan><tspan class="cls-21" x="358.4" y="32.4">v</tspan><tspan x="363.14" y="32.4">elit esse </tspan><tspan class="cls-14" x="0" y="43.2">m</tspan><tspan x="9.57" y="43.2">olestie </tspan><tspan class="cls-20" x="41.34" y="43.2">c</tspan><tspan x="46.32" y="43.2">onsequa</tspan><tspan class="cls-9" x="85.36" y="43.2">t</tspan><tspan x="89.11" y="43.2">, </tspan><tspan class="cls-21" x="93.37" y="43.2">v</tspan><tspan x="98.12" y="43.2">el illum dolo</tspan><tspan class="cls-13" x="153.36" y="43.2">r</tspan><tspan x="156.86" y="43.2">e eu </tspan><tspan class="cls-15" x="178.5" y="43.2">f</tspan><tspan x="181.47" y="43.2">eugiat nulla </tspan><tspan class="cls-7" x="237.54" y="43.2">f</tspan><tspan class="cls-14" x="240.5" y="43.2">a</tspan><tspan x="245.83" y="43.2">cilisis at </tspan><tspan class="cls-5" x="283.06" y="43.2">v</tspan><tspan x="287.8" y="43.2">e</tspan><tspan class="cls-19" x="293.24" y="43.2">r</tspan><tspan x="296.73" y="43.2">o e</tspan><tspan class="cls-13" x="310.17" y="43.2">r</tspan><tspan x="313.66" y="43.2">os et </tspan><tspan class="cls-14" x="337.51" y="43.2">a</tspan><tspan class="cls-15" x="342.84" y="43.2">c</tspan><tspan x="347.82" y="43.2">cumsan et </tspan><tspan x="0" y="54">ius</tspan><tspan class="cls-17" x="12.88" y="54">t</tspan><tspan x="16.36" y="54">o odio dignissim qui bla</tspan><tspan class="cls-14" x="123.64" y="54">n</tspan><tspan x="129.75" y="54">dit p</tspan><tspan class="cls-20" x="150.39" y="54">r</tspan><tspan class="cls-14" x="153.92" y="54">a</tspan><tspan x="159.24" y="54">esent luptatum zz</tspan><tspan class="cls-12" x="240.98" y="54">r</tspan><tspan x="244.51" y="54">il delenit augue duis dolo</tspan><tspan class="cls-13" x="358.17" y="54">r</tspan><tspan x="361.66" y="54">e </tspan><tspan class="cls-17" x="369.46" y="54">t</tspan><tspan x="372.94" y="54">e </tspan><tspan class="cls-15" x="0" y="64.8">f</tspan><tspan x="2.97" y="64.8">eugait nulla </tspan><tspan class="cls-7" x="59.04" y="64.8">f</tspan><tspan class="cls-14" x="62" y="64.8">a</tspan><tspan x="67.33" y="64.8">cilisi.</tspan><tspan class="cls-12" x="0" y="75.6">L</tspan><tspan x="5.23" y="75.6">o</tspan><tspan class="cls-13" x="10.87" y="75.6">r</tspan><tspan x="14.36" y="75.6">em ipsum dolor sit a</tspan><tspan class="cls-14" x="106.51" y="75.6">m</tspan><tspan x="116.08" y="75.6">e</tspan><tspan class="cls-9" x="121.51" y="75.6">t</tspan><tspan x="125.26" y="75.6">, </tspan><tspan class="cls-15" x="129.53" y="75.6">c</tspan><tspan x="134.51" y="75.6">ons e</tspan><tspan class="cls-16" x="158.44" y="75.6">c</tspan><tspan class="cls-17" x="163.56" y="75.6">t</tspan><tspan x="167.05" y="75.6">etuer </tspan><tspan class="cls-14" x="193.6" y="75.6">a</tspan><tspan x="198.92" y="75.6">dipisci</tspan><tspan class="cls-14" x="227.86" y="75.6">n</tspan><tspan x="233.97" y="75.6">g eli</tspan><tspan class="cls-9" x="252.78" y="75.6">t</tspan><tspan x="256.52" y="75.6">, sed diam </tspan><tspan class="cls-18" x="304.82" y="75.6">n</tspan><tspan x="310.94" y="75.6">onum</tspan><tspan class="cls-7" x="338.28" y="75.6">m</tspan><tspan x="347.74" y="75.6">y nibh </tspan><tspan x="0" y="86.4">euis</tspan><tspan class="cls-14" x="18.31" y="86.4">m</tspan><tspan x="27.88" y="86.4">od ti</tspan><tspan class="cls-18" x="48.06" y="86.4">n</tspan><tspan x="54.17" y="86.4">cidunt ut l</tspan><tspan class="cls-14" x="100.41" y="86.4">a</tspan><tspan x="105.74" y="86.4">o</tspan><tspan class="cls-13" x="111.38" y="86.4">r</tspan><tspan x="114.87" y="86.4">eet dolo</tspan><tspan class="cls-19" x="151.57" y="86.4">r</tspan><tspan x="155.06" y="86.4">e m</tspan><tspan class="cls-14" x="172.4" y="86.4">a</tspan><tspan x="177.73" y="86.4">gna aliquam e</tspan><tspan class="cls-20" x="242.62" y="86.4">r</tspan><tspan x="246.15" y="86.4">at </tspan><tspan class="cls-21" x="257.47" y="86.4">v</tspan><tspan x="262.22" y="86.4">olut</tspan><tspan class="cls-22" x="279.99" y="86.4">p</tspan><tspan x="286.07" y="86.4">a</tspan><tspan class="cls-9" x="291.38" y="86.4">t</tspan><tspan x="295.12" y="86.4">. Ut wisi enim </tspan><tspan class="cls-14" x="357.9" y="86.4">a</tspan><tspan x="363.22" y="86.4">d minim </tspan><tspan class="cls-5" x="0" y="97.2">v</tspan><tspan x="4.74" y="97.2">eniam, quis </tspan><tspan class="cls-14" x="59.16" y="97.2">n</tspan><tspan x="65.27" y="97.2">ostrud </tspan><tspan class="cls-5" x="97.09" y="97.2">e</tspan><tspan class="cls-17" x="102.39" y="97.2">x</tspan><tspan x="107.03" y="97.2">e</tspan><tspan class="cls-19" x="112.46" y="97.2">r</tspan><tspan x="115.95" y="97.2">ci tation ulla</tspan><tspan class="cls-18" x="171.14" y="97.2">m</tspan><tspan class="cls-15" x="180.71" y="97.2">c</tspan><tspan x="185.69" y="97.2">o</tspan><tspan class="cls-12" x="191.33" y="97.2">r</tspan><tspan x="194.87" y="97.2">per suscipit lobo</tspan><tspan class="cls-23" x="269.07" y="97.2">r</tspan><tspan x="272.81" y="97.2">tis nisl ut aliquip </tspan><tspan class="cls-5" x="348.6" y="97.2">e</tspan><tspan x="353.9" y="97.2">x </tspan><tspan class="cls-5" x="361.06" y="97.2">e</tspan><tspan x="366.36" y="97.2">a </tspan><tspan class="cls-15" x="0" y="108">c</tspan><tspan x="4.99" y="108">om</tspan><tspan class="cls-18" x="20.18" y="108">m</tspan><tspan x="29.74" y="108">odo </tspan><tspan class="cls-15" x="49.49" y="108">c</tspan><tspan x="54.48" y="108">onsequa</tspan><tspan class="cls-9" x="93.52" y="108">t</tspan><tspan x="97.26" y="108">.</tspan><tspan class="cls-12" x="0" y="118.8">L</tspan><tspan x="5.23" y="118.8">o</tspan><tspan class="cls-13" x="10.87" y="118.8">r</tspan><tspan x="14.36" y="118.8">em ipsum dolor sit a</tspan><tspan class="cls-14" x="106.51" y="118.8">m</tspan><tspan x="116.08" y="118.8">e</tspan><tspan class="cls-9" x="121.51" y="118.8">t</tspan><tspan x="125.26" y="118.8">, </tspan><tspan class="cls-15" x="129.53" y="118.8">c</tspan><tspan x="134.51" y="118.8">onse</tspan><tspan class="cls-16" x="156.08" y="118.8">c</tspan><tspan class="cls-17" x="161.21" y="118.8">t</tspan><tspan x="164.69" y="118.8">etuer </tspan><tspan class="cls-14" x="191.24" y="118.8">a</tspan><tspan x="196.56" y="118.8">dipisci</tspan><tspan class="cls-14" x="225.5" y="118.8">n</tspan><tspan x="231.61" y="118.8">g eli</tspan><tspan class="cls-9" x="250.42" y="118.8">t</tspan><tspan x="254.16" y="118.8">, sed </tspan></text><text class="cls-3" transform="translate(393.74 23.2)">N<tspan class="cls-25" x="7.32" y="0">A</tspan><tspan class="cls-5" x="13.45" y="0">V</tspan><tspan x="19.59" y="0">BAR</tspan></text><line class="cls-1" y1="457.08" x2="500" y2="457.08"/><circle class="cls-1" cx="329.26" cy="433.72" r="16.16"/><circle class="cls-1" cx="170.49" cy="433.72" r="16.16"/><text class="cls-26" transform="translate(154.59 436.36)">BOUN<tspan class="cls-27" x="22.82" y="0">C</tspan><tspan x="28.07" y="0">Y</tspan></text><text class="cls-26" transform="translate(313.1 436.48)">BOUN<tspan class="cls-27" x="22.82" y="0">C</tspan><tspan x="28.07" y="0">Y</tspan></text></g><g id="OBJECTS"><rect class="cls-1" x="351.08" y="11.4" width="116.64" height="21.6"/></g></svg>