<svg id="BACKGROUND" xmlns="http://www.w3.org/2000/svg" viewBox="0 0 500 500"><defs><style>.cls-1{fill:#fff;}.cls-2{fill:none;stroke:#231f20;stroke-miterlimit:10;}.cls-3{font-size:9px;}.cls-10,.cls-3{fill:#231f20;font-family:Montserrat-Regular, Montserrat;}.cls-4{letter-spacing:-0.01em;}.cls-5{letter-spacing:-0.01em;}.cls-6{letter-spacing:0em;}.cls-7{letter-spacing:-0.01em;}.cls-8{letter-spacing:-0.03em;}.cls-9{letter-spacing:0.01em;}.cls-10{font-size:7px;}.cls-11{letter-spacing:-0.01em;}.cls-12{letter-spacing:-0.01em;}.cls-13{letter-spacing:-0.01em;}.cls-14{letter-spacing:0em;}.cls-15{letter-spacing:-0.01em;}.cls-16{letter-spacing:0.01em;}.cls-17{letter-spacing:-0.02em;}.cls-18{letter-spacing:0em;}.cls-19{letter-spacing:-0.01em;}.cls-20{letter-spacing:-0.01em;}.cls-21{letter-spacing:-0.02em;}.cls-22{letter-spacing:0em;}.cls-23{letter-spacing:0.02em;}.cls-24{letter-spacing:-0.01em;}</style></defs><rect class="cls-1" width="500" height="500"/><rect class="cls-2" x="9.52" y="13.12" width="476.64" height="476.64"/><circle class="cls-2" cx="48.79" cy="46.92" r="20.27"/><rect class="cls-2" x="137.32" y="57.48" width="225.36" height="35.45"/><rect class="cls-2" x="81.16" y="111.01" width="337.68" height="27"/><rect class="cls-2" x="188.08" y="159.07" width="123.84" height="17.1"/><rect class="cls-2" x="39.4" y="195.1" width="421.2" height="254.82"/><rect class="cls-2" x="48.79" y="383.42" width="51.93" height="51.93"/><rect class="cls-2" x="112.15" y="383.42" width="51.93" height="51.93"/><rect class="cls-2" x="178.39" y="383.42" width="51.93" height="51.93"/><rect class="cls-2" x="247.84" y="383.42" width="51.93" height="51.93"/><rect class="cls-2" x="319.36" y="383.42" width="51.93" height="51.93"/><rect class="cls-2" x="390.68" y="383.42" width="51.93" height="51.93"/><rect class="cls-2" x="345.32" y="239.07" width="88.6" height="105.11"/><rect class="cls-2" x="199.6" y="462.31" width="100.8" height="20.69"/><rect class="cls-2" x="390.68" y="472.66" width="84.24" height="10.34"/><text class="cls-3" transform="translate(35 50.32)"><tspan class="cls-4">L</tspan><tspan x="5.17" y="0">OGO</tspan></text><text class="cls-3" transform="translate(215.18 78.68)">MAIN TITLE</text><text class="cls-3" transform="translate(190.85 126.99)">INTRO ABO<tspan class="cls-4" x="52.41" y="0">U</tspan><tspan x="59.41" y="0">T </tspan><tspan class="cls-5" x="66.93" y="0">W</tspan><tspan x="76.8" y="0">EBSITE</tspan></text><text class="cls-3" transform="translate(203.58 170.48)">LINK MAIN <tspan class="cls-5" x="51.53" y="0">V</tspan><tspan x="57.68" y="0">ID</tspan><tspan class="cls-6" x="67.83" y="0">E</tspan><tspan x="73.82" y="0">O</tspan></text><text class="cls-3" transform="translate(378.61 296.36)">IM<tspan class="cls-7" x="11.31" y="0">A</tspan><tspan x="17.68" y="0">GE</tspan></text><text class="cls-3" transform="translate(398.49 409.42)">IM<tspan class="cls-7" x="11.31" y="0">A</tspan><tspan x="17.68" y="0">GE</tspan></text><text class="cls-3" transform="translate(326.36 409.42)">IM<tspan class="cls-7" x="11.31" y="0">A</tspan><tspan x="17.68" y="0">GE</tspan></text><text class="cls-3" transform="translate(253.38 410.1)">IM<tspan class="cls-7" x="11.31" y="0">A</tspan><tspan x="17.68" y="0">GE</tspan></text><text class="cls-3" transform="translate(186.12 410.47)">IM<tspan class="cls-7" x="11.31" y="0">A</tspan><tspan x="17.68" y="0">GE</tspan></text><text class="cls-3" transform="translate(119.97 412.53)">IM<tspan class="cls-7" x="11.31" y="0">A</tspan><tspan x="17.68" y="0">GE</tspan></text><text class="cls-3" transform="translate(58.47 411.38)">IM<tspan class="cls-7" x="11.31" y="0">A</tspan><tspan x="17.68" y="0">GE</tspan></text><text class="cls-3" transform="translate(202.25 475.65)">DON<tspan class="cls-8" x="22.3" y="0">A</tspan><tspan x="28.44" y="0">TION B</tspan><tspan class="cls-4" x="60.34" y="0">U</tspan><tspan class="cls-9" x="67.34" y="0">T</tspan><tspan class="cls-7" x="72.59" y="0">T</tspan><tspan x="77.67" y="0">ON</tspan></text><text class="cls-10" transform="translate(402.62 480.34)">LINK <tspan class="cls-11" x="18.74" y="0">T</tspan><tspan x="22.69" y="0">O REPO</tspan></text><text class="cls-3" transform="translate(47.6 213.2)"><tspan class="cls-12">L</tspan><tspan x="5.23" y="0">o</tspan><tspan class="cls-13" x="10.87" y="0">r</tspan><tspan x="14.36" y="0">em ipsum dolor sit a</tspan><tspan class="cls-14" x="106.51" y="0">m</tspan><tspan x="116.08" y="0">e</tspan><tspan class="cls-9" x="121.51" y="0">t</tspan><tspan x="125.26" y="0">, </tspan><tspan class="cls-15" x="129.53" y="0">c</tspan><tspan x="134.51" y="0">onse</tspan><tspan class="cls-16" x="156.08" y="0">c</tspan><tspan class="cls-17" x="161.21" y="0">t</tspan><tspan x="164.69" y="0">etuer </tspan><tspan class="cls-14" x="191.24" y="0">a</tspan><tspan x="196.56" y="0">dipisci</tspan><tspan class="cls-14" x="225.5" y="0">n</tspan><tspan x="231.61" y="0">g eli</tspan><tspan class="cls-9" x="250.42" y="0">t</tspan><tspan x="254.16" y="0">, sed </tspan><tspan x="0" y="10.8">diam </tspan><tspan class="cls-14" x="25.74" y="10.8">n</tspan><tspan x="31.85" y="10.8">onum</tspan><tspan class="cls-7" x="59.19" y="10.8">m</tspan><tspan x="68.65" y="10.8">y nibh euis</tspan><tspan class="cls-18" x="117.27" y="10.8">m</tspan><tspan x="126.83" y="10.8">od ti</tspan><tspan class="cls-14" x="147.01" y="10.8">n</tspan><tspan x="153.12" y="10.8">cidunt ut l</tspan><tspan class="cls-18" x="199.36" y="10.8">a</tspan><tspan x="204.69" y="10.8">o</tspan><tspan class="cls-19" x="210.33" y="10.8">r</tspan><tspan x="213.83" y="10.8">eet dolo</tspan><tspan class="cls-19" x="250.52" y="10.8">r</tspan><tspan x="254.01" y="10.8">e </tspan><tspan x="0" y="21.6">m</tspan><tspan class="cls-14" x="9.55" y="21.6">a</tspan><tspan x="14.88" y="21.6">gna aliquam e</tspan><tspan class="cls-20" x="79.77" y="21.6">r</tspan><tspan x="83.3" y="21.6">at </tspan><tspan class="cls-21" x="94.62" y="21.6">v</tspan><tspan x="99.37" y="21.6">olut</tspan><tspan class="cls-22" x="117.14" y="21.6">p</tspan><tspan x="123.21" y="21.6">a</tspan><tspan class="cls-9" x="128.52" y="21.6">t</tspan><tspan x="132.27" y="21.6">. Ut wisi enim </tspan><tspan class="cls-14" x="195.04" y="21.6">a</tspan><tspan x="200.37" y="21.6">d minim </tspan><tspan class="cls-5" x="241.22" y="21.6">v</tspan><tspan x="245.97" y="21.6">eniam, </tspan><tspan x="0" y="32.4">quis </tspan><tspan class="cls-14" x="21.34" y="32.4">n</tspan><tspan x="27.45" y="32.4">ostrud </tspan><tspan class="cls-5" x="59.27" y="32.4">e</tspan><tspan class="cls-17" x="64.57" y="32.4">x</tspan><tspan x="69.21" y="32.4">e</tspan><tspan class="cls-19" x="74.64" y="32.4">r</tspan><tspan x="78.13" y="32.4">ci tation ulla</tspan><tspan class="cls-18" x="133.32" y="32.4">m</tspan><tspan class="cls-15" x="142.89" y="32.4">c</tspan><tspan x="147.88" y="32.4">o</tspan><tspan class="cls-12" x="153.52" y="32.4">r</tspan><tspan x="157.05" y="32.4">per suscipit lobo</tspan><tspan class="cls-23" x="231.25" y="32.4">r</tspan><tspan x="234.99" y="32.4">tis nisl ut </tspan><tspan x="0" y="43.2">aliquip </tspan><tspan class="cls-5" x="33.19" y="43.2">e</tspan><tspan x="38.49" y="43.2">x </tspan><tspan class="cls-5" x="45.66" y="43.2">e</tspan><tspan x="50.96" y="43.2">a </tspan><tspan class="cls-15" x="58.62" y="43.2">c</tspan><tspan x="63.61" y="43.2">om</tspan><tspan class="cls-14" x="78.8" y="43.2">m</tspan><tspan x="88.37" y="43.2">odo </tspan><tspan class="cls-15" x="108.11" y="43.2">c</tspan><tspan x="113.1" y="43.2">onsequa</tspan><tspan class="cls-9" x="152.14" y="43.2">t</tspan><tspan x="155.88" y="43.2">. Duis au</tspan><tspan class="cls-17" x="194.19" y="43.2">t</tspan><tspan x="197.67" y="43.2">em </tspan><tspan class="cls-5" x="215.01" y="43.2">v</tspan><tspan x="219.76" y="43.2">el eum i</tspan><tspan class="cls-12" x="255.79" y="43.2">r</tspan><tspan x="259.33" y="43.2">iu</tspan><tspan class="cls-13" x="267.81" y="43.2">r</tspan><tspan x="271.3" y="43.2">e </tspan><tspan x="0" y="54">dolor in </tspan><tspan class="cls-14" x="36.65" y="54">h</tspan><tspan x="42.76" y="54">e</tspan><tspan class="cls-18" x="48.19" y="54">n</tspan><tspan x="54.3" y="54">d</tspan><tspan class="cls-19" x="60.41" y="54">r</tspan><tspan x="63.9" y="54">e</tspan><tspan class="cls-12" x="69.33" y="54">r</tspan><tspan x="72.87" y="54">it in vulputa</tspan><tspan class="cls-17" x="126.65" y="54">t</tspan><tspan x="130.13" y="54">e </tspan><tspan class="cls-5" x="137.93" y="54">v</tspan><tspan x="142.67" y="54">elit esse </tspan><tspan class="cls-18" x="180.99" y="54">m</tspan><tspan x="190.56" y="54">olestie </tspan><tspan class="cls-15" x="222.33" y="54">c</tspan><tspan x="227.32" y="54">onsequa</tspan><tspan class="cls-9" x="266.36" y="54">t</tspan><tspan x="270.1" y="54">, </tspan><tspan class="cls-5" x="274.37" y="54">v</tspan><tspan x="279.11" y="54">el </tspan><tspan x="0" y="64.8">illum dolo</tspan><tspan class="cls-19" x="45.03" y="64.8">r</tspan><tspan x="48.53" y="64.8">e eu </tspan><tspan class="cls-20" x="70.17" y="64.8">f</tspan><tspan x="73.14" y="64.8">eugiat nulla </tspan><tspan class="cls-24" x="129.21" y="64.8">f</tspan><tspan class="cls-18" x="132.17" y="64.8">a</tspan><tspan x="137.5" y="64.8">cilisis at </tspan><tspan class="cls-5" x="174.73" y="64.8">v</tspan><tspan x="179.47" y="64.8">e</tspan><tspan class="cls-19" x="184.91" y="64.8">r</tspan><tspan x="188.4" y="64.8">o e</tspan><tspan class="cls-19" x="201.84" y="64.8">r</tspan><tspan x="205.33" y="64.8">os et </tspan><tspan class="cls-18" x="229.18" y="64.8">a</tspan><tspan class="cls-15" x="234.51" y="64.8">c</tspan><tspan x="239.49" y="64.8">cumsan et </tspan><tspan x="0" y="75.6">ius</tspan><tspan class="cls-17" x="12.88" y="75.6">t</tspan><tspan x="16.36" y="75.6">o odio dignissim qui bla</tspan><tspan class="cls-14" x="123.64" y="75.6">n</tspan><tspan x="129.75" y="75.6">dit p</tspan><tspan class="cls-20" x="150.39" y="75.6">r</tspan><tspan class="cls-14" x="153.92" y="75.6">a</tspan><tspan x="159.24" y="75.6">esent luptatum zz</tspan><tspan class="cls-12" x="240.98" y="75.6">r</tspan><tspan x="244.51" y="75.6">il delenit </tspan><tspan x="0" y="86.4">augue duis dolo</tspan><tspan class="cls-19" x="72.54" y="86.4">r</tspan><tspan x="76.03" y="86.4">e </tspan><tspan class="cls-17" x="83.82" y="86.4">t</tspan><tspan x="87.31" y="86.4">e </tspan><tspan class="cls-15" x="95.1" y="86.4">f</tspan><tspan x="98.07" y="86.4">eugait nulla </tspan><tspan class="cls-7" x="154.14" y="86.4">f</tspan><tspan class="cls-18" x="157.1" y="86.4">a</tspan><tspan x="162.43" y="86.4">cilisi.</tspan><tspan class="cls-12" x="0" y="97.2">L</tspan><tspan x="5.23" y="97.2">o</tspan><tspan class="cls-13" x="10.87" y="97.2">r</tspan><tspan x="14.36" y="97.2">em ipsum dolor sit a</tspan><tspan class="cls-14" x="106.51" y="97.2">m</tspan><tspan x="116.08" y="97.2">e</tspan><tspan class="cls-9" x="121.51" y="97.2">t</tspan><tspan x="125.26" y="97.2">, </tspan><tspan class="cls-15" x="129.53" y="97.2">c</tspan><tspan x="134.51" y="97.2">ons e</tspan><tspan class="cls-16" x="158.44" y="97.2">c</tspan><tspan class="cls-17" x="163.56" y="97.2">t</tspan><tspan x="167.05" y="97.2">etuer </tspan><tspan class="cls-14" x="193.6" y="97.2">a</tspan><tspan x="198.92" y="97.2">dipisci</tspan><tspan class="cls-14" x="227.86" y="97.2">n</tspan><tspan x="233.97" y="97.2">g eli</tspan><tspan class="cls-9" x="252.78" y="97.2">t</tspan><tspan x="256.52" y="97.2">, sed </tspan><tspan x="0" y="108">diam </tspan><tspan class="cls-14" x="25.74" y="108">n</tspan><tspan x="31.85" y="108">onum</tspan><tspan class="cls-7" x="59.19" y="108">m</tspan><tspan x="68.65" y="108">y nibh euis</tspan><tspan class="cls-18" x="117.27" y="108">m</tspan><tspan x="126.83" y="108">od ti</tspan><tspan class="cls-14" x="147.01" y="108">n</tspan><tspan x="153.12" y="108">cidunt ut l</tspan><tspan class="cls-18" x="199.36" y="108">a</tspan><tspan x="204.69" y="108">o</tspan><tspan class="cls-19" x="210.33" y="108">r</tspan><tspan x="213.83" y="108">eet dolo</tspan><tspan class="cls-19" x="250.52" y="108">r</tspan><tspan x="254.01" y="108">e </tspan><tspan x="0" y="118.8">m</tspan><tspan class="cls-14" x="9.55" y="118.8">a</tspan><tspan x="14.88" y="118.8">gna aliquam e</tspan><tspan class="cls-20" x="79.77" y="118.8">r</tspan><tspan x="83.3" y="118.8">at </tspan><tspan class="cls-21" x="94.62" y="118.8">v</tspan><tspan x="99.37" y="118.8">olut</tspan><tspan class="cls-22" x="117.14" y="118.8">p</tspan><tspan x="123.21" y="118.8">a</tspan><tspan class="cls-9" x="128.52" y="118.8">t</tspan><tspan x="132.27" y="118.8">. Ut wisi enim </tspan><tspan class="cls-14" x="195.04" y="118.8">a</tspan><tspan x="200.37" y="118.8">d minim </tspan><tspan class="cls-5" x="241.22" y="118.8">v</tspan><tspan x="245.97" y="118.8">eniam, </tspan><tspan x="0" y="129.6">quis </tspan><tspan class="cls-14" x="21.34" y="129.6">n</tspan><tspan x="27.45" y="129.6">ostrud </tspan><tspan class="cls-5" x="59.27" y="129.6">e</tspan><tspan class="cls-17" x="64.57" y="129.6">x</tspan><tspan x="69.21" y="129.6">e</tspan><tspan class="cls-19" x="74.64" y="129.6">r</tspan><tspan x="78.13" y="129.6">ci tation ulla</tspan><tspan class="cls-18" x="133.32" y="129.6">m</tspan><tspan class="cls-15" x="142.89" y="129.6">c</tspan><tspan x="147.88" y="129.6">o</tspan><tspan class="cls-12" x="153.52" y="129.6">r</tspan><tspan x="157.05" y="129.6">per suscipit lobo</tspan><tspan class="cls-23" x="231.25" y="129.6">r</tspan><tspan x="234.99" y="129.6">tis nisl ut </tspan><tspan x="0" y="140.4">aliquip </tspan><tspan class="cls-5" x="33.19" y="140.4">e</tspan><tspan x="38.49" y="140.4">x </tspan><tspan class="cls-5" x="45.66" y="140.4">e</tspan><tspan x="50.96" y="140.4">a </tspan><tspan class="cls-15" x="58.62" y="140.4">c</tspan><tspan x="63.61" y="140.4">om</tspan><tspan class="cls-14" x="78.8" y="140.4">m</tspan><tspan x="88.37" y="140.4">odo </tspan><tspan class="cls-15" x="108.11" y="140.4">c</tspan><tspan x="113.1" y="140.4">onsequa</tspan><tspan class="cls-9" x="152.14" y="140.4">t</tspan><tspan x="155.88" y="140.4">.</tspan><tspan class="cls-12" x="0" y="151.2">L</tspan><tspan x="5.23" y="151.2">o</tspan><tspan class="cls-13" x="10.87" y="151.2">r</tspan><tspan x="14.36" y="151.2">em ipsum dolor sit a</tspan><tspan class="cls-14" x="106.51" y="151.2">m</tspan><tspan x="116.08" y="151.2">e</tspan><tspan class="cls-9" x="121.51" y="151.2">t</tspan><tspan x="125.26" y="151.2">, </tspan><tspan class="cls-15" x="129.53" y="151.2">c</tspan><tspan x="134.51" y="151.2">onse</tspan><tspan class="cls-16" x="156.08" y="151.2">c</tspan><tspan class="cls-17" x="161.21" y="151.2">t</tspan><tspan x="164.69" y="151.2">etuer </tspan><tspan class="cls-14" x="191.24" y="151.2">a</tspan><tspan x="196.56" y="151.2">dipisci</tspan><tspan class="cls-14" x="225.5" y="151.2">n</tspan><tspan x="231.61" y="151.2">g eli</tspan><tspan class="cls-9" x="250.42" y="151.2">t</tspan><tspan x="254.16" y="151.2">, sed </tspan></text></svg>